<svg xmlns="http://www.w3.org/2000/svg" xml:space="preserve" width="192" height="98.746"><circle cx="27.952" cy="15.972" r="7.639" transform="matrix(-1.97484 0 0 1.97484 197.485 0)"/><path d="M19.202 41.142 30.17 0H192l-.002 83.652h-29.143c0-11.359-9.208-20.57-20.572-20.57-11.36 0-20.572 9.211-20.572 20.57h-64.11c0-11.359-9.21-20.57-20.573-20.57-7.992 0-14.906 4.568-18.308 11.23a20.443 20.443 0 0 0-2.185 7.883c-.033.484-.075.968-.075 1.457H0V49.373zm38.396 0V16.456H34.08l-6.577 24.686z"/><path d="M142.284 68.572c8.332 0 15.086 6.758 15.086 15.086 0 8.332-6.754 15.088-15.086 15.088-8.33 0-15.084-6.756-15.084-15.088 0-8.328 6.756-15.086 15.084-15.086zm-105.255 0c8.332 0 15.09 6.758 15.09 15.086 0 8.332-6.758 15.088-15.09 15.088s-15.09-6.756-15.09-15.088c0-8.328 6.758-15.086 15.09-15.086z"/></svg>