<svg xmlns="http://www.w3.org/2000/svg" xml:space="preserve" width="145.046" height="192" overflow="visible" style="overflow:visible" version="1.0"><path d="M62.06 80.458a3.543 3.543 0 0 0 2.513-4.345 3.546 3.546 0 1 0-6.85 1.831 3.536 3.536 0 0 0 4.337 2.514zm20.919 0a3.549 3.549 0 0 0 4.345-2.514c.514-1.89-.617-3.836-2.51-4.345a3.557 3.557 0 0 0-4.349 2.504 3.564 3.564 0 0 0 2.514 4.355zm18.105 5.435a3.547 3.547 0 0 0 0 5.015 3.543 3.543 0 0 0 5.023 0 3.565 3.565 0 0 0 0-5.015 3.546 3.546 0 0 0-5.023 0zm14.798 25.64a3.546 3.546 0 0 0 2.513-4.345 3.548 3.548 0 0 0-4.34-2.515 3.564 3.564 0 0 0-2.518 4.352 3.557 3.557 0 0 0 4.345 2.508zm.008 15.887a3.568 3.568 0 0 0-4.355 2.514 3.56 3.56 0 0 0 2.519 4.347 3.532 3.532 0 0 0 4.339-2.515 3.547 3.547 0 0 0-2.504-4.345zm-14.806 20.63a3.545 3.545 0 0 0 0 5.012 3.546 3.546 0 0 0 5.023 0 3.562 3.562 0 0 0 0-5.013 3.54 3.54 0 0 0-5.023 0zm-18.105 10.454a3.546 3.546 0 1 0 1.835 6.852 3.548 3.548 0 1 0-1.836-6.852zm-20.919 0a3.535 3.535 0 0 0-4.337 2.505 3.541 3.541 0 0 0 2.513 4.347 3.554 3.554 0 0 0 4.337-2.515 3.532 3.532 0 0 0-2.513-4.337zM38.94 148.05a3.534 3.534 0 0 0 0 5.012 3.537 3.537 0 0 0 5.015 0 3.548 3.548 0 0 0 0-5.013 3.53 3.53 0 0 0-5.015 0zm-9.781-20.622a3.537 3.537 0 0 0-2.513 4.338 3.553 3.553 0 0 0 4.347 2.515 3.556 3.556 0 0 0 2.513-4.347 3.545 3.545 0 0 0-4.347-2.506zm0-15.895a3.553 3.553 0 0 0 4.347-2.508 3.563 3.563 0 0 0-2.513-4.352 3.55 3.55 0 1 0-1.834 6.86zm50.145 1.165a9.942 9.942 0 0 0-1.356-1.1l.04-.056-34.032-25.649a3.537 3.537 0 0 0-5.015 0 3.537 3.537 0 0 0 0 5.015l25.648 34.034.05-.046c.326.482.687.933 1.106 1.355 3.742 3.74 9.81 3.74 13.559 0 3.724-3.738 3.724-9.81 0-13.553z"/><path d="m128.081 72.862 3.573-3.575 1.24 1.24a2.65 2.65 0 0 0 3.754 0l4.689-4.68a2.665 2.665 0 0 0 0-3.752l-.025-.027-11.161-11.161h-.008a2.648 2.648 0 0 0-3.752 0l-4.68 4.68a2.648 2.648 0 0 0 0 3.753l1.215 1.213-3.56 3.56c-8.39-7.102-18.405-12.336-29.416-15.05 6.23-5.059 10.206-12.77 10.206-21.43C100.155 12.369 87.786 0 72.52 0 57.262 0 44.886 12.369 44.886 27.635c0 8.659 3.986 16.371 10.206 21.43-11.001 2.714-21.018 7.947-29.408 15.05l-3.56-3.56 1.206-1.214a2.662 2.662 0 0 0 0-3.751l-4.689-4.681a2.639 2.639 0 0 0-3.744 0L3.734 62.069l-.015.024a2.634 2.634 0 0 0 0 3.751l4.673 4.681a2.648 2.648 0 0 0 3.752 0l1.248-1.24 3.577 3.575C6.382 85.475 0 101.731 0 119.474 0 159.534 32.467 192 72.52 192c40.052 0 72.526-32.465 72.526-72.526 0-17.743-6.37-34-16.965-46.612zM53.946 27.635c0-10.257 8.316-18.575 18.574-18.575 10.259 0 18.582 8.318 18.582 18.575 0 8.04-5.117 14.88-12.25 17.47V33.237h1.75a2.654 2.654 0 0 0 2.653-2.653V23.96a2.653 2.653 0 0 0-2.653-2.654H64.783a2.654 2.654 0 0 0-2.654 2.654v6.624a2.654 2.654 0 0 0 2.654 2.653h1.709v11.967c-7.295-2.505-12.546-9.421-12.546-17.57zM72.52 174.292c-30.18 0-54.641-24.467-54.641-54.651C17.879 89.471 42.339 65 72.52 65c30.173 0 54.64 24.47 54.64 54.641 0 30.184-24.467 54.65-54.64 54.65z"/></svg>