<svg xmlns="http://www.w3.org/2000/svg" xml:space="preserve" width="192" height="161.25"><path d="M96 0 0 97.906h23v63.344h146V97.906h23l-34.594-35.25V17.25h-26.812v18L96 0zm-.094 57.25c2.354.025 4.717.309 7.031.781 9.271 1.948 20.296 10.996 20.313 24.125-.017 13.18-10.516 18.182-14.281 20.656-3.759 2.457-5.159 5.3-5.125 8.313v11.094l-14.375.062V105.72c.011-4.907 1.628-8.277 6.312-11.313l8.063-5.469c5.164-3.52 5.138-10.61 1.937-13.78-2.838-2.738-7.594-4.34-12.687-3.344-9.258 1.903-10.029 8.762-10 15.25v2.843H68.75c.026-12.19 1.389-17.732 7.781-24.687 5.332-5.877 12.313-8.044 19.375-7.969zm-6.5 70.625h14.5v14.719h-14.5v-14.719z"/></svg>