<svg xmlns="http://www.w3.org/2000/svg" xml:space="preserve" width="192" height="180.034" version="1.0"><path d="M154.667 29.333c6.792-.026 13.354-6.594 13.333-14.666.02-8.125-6.541-14.691-14.666-14.667-8.075-.024-14.64 6.542-14.667 14.667 1.36 8.072 7.924 14.642 16 14.666zm18.666 141.334V88H184V42.422c.014-5.89-5.284-10.42-12.86-10.422h-35.2c-6.995.002-8.7 2.268-10.639 4.147L96 71.273c-5.938 7.36 4.654 15.938 10.638 9.072L136 47.055v123.227c-1.442 12.384 15.96 12.788 16 .385v-69.334h2.667v68.95c1.395 12.917 18.691 12.957 18.666.384z"/><path d="M0 86.365v17.05h192v-17.05z"/><path d="M48 42.667h40v40H48z" style="fill:#000;fill-opacity:1;stroke:none"/></svg>