<svg xmlns="http://www.w3.org/2000/svg" xmlns:xlink="http://www.w3.org/1999/xlink" xml:space="preserve" width="141.439" height="192" version="1.0"><path id="a" d="m91.771 74.14 3.256-1.468c5.768-2.6 8.95-3.711 10.226-4.281.227-.104 1.346-.72 1.876-1.888 1.51-3.379 7.966-19.718 9.415-23.329 1.223-3.057 4.243-7.396 10.453-8.934 7.067-1.749 12.758 2.71 14.442 9.8v135.893c-.048 6.696-4.883 12.093-11.572 12.066-6.681-.02-11.256-5.466-11.235-12.157 0 0 .006-43.226.013-67.244l3.064-43.4c-1.202 2.935-2.686 6.512-3.174 7.37-1.16 2.025-2.3 3.42-4.636 4.52 0 0-13.461 5.57-18.666 7.946-3.137 1.202-6.545.138-8.529-2.361 0 0-5.067-8.386 5.067-12.534z"/><path d="M-90.734 31.88h40.03v40.03h-40.03z" style="fill:#000;fill-opacity:1;stroke:none" transform="scale(-1 1)"/><use xlink:href="#a" width="66.741" height="72" transform="matrix(-1 0 0 1 141.439 0)"/><circle cx="15.546" cy="15.546" r="15.546" style="stroke-width:1.91996"/><g transform="matrix(-2.66866 0 0 2.66866 141.439 -.144)"><circle cx="18.789" cy="8.095" r="8.097" transform="translate(-7.692 .055) scale(.71945)"/><circle cx="18.789" cy="8.095" r="8.097" transform="matrix(.69493 -.1862 .06393 .23859 -4.986 5.018)"/></g></svg>