<svg xmlns="http://www.w3.org/2000/svg" xml:space="preserve" width="174.799" height="192"><circle cx="61.578" cy="7.497" r="7.446" transform="translate(-27.271 -.106) scale(2.08096)"/><path d="M29.262 101.732v-4.403c-4.453-.643-8.575-2.456-11.126-4.081l3.104-4.963c1.996 1.165 5.147 2.46 8.022 3.163v-7.893l-1.945-.697c-3.8-1.397-8.443-3.654-8.443-9.325 0-5.188 3.85-8.944 10.388-9.364v-4.225h4.874v4.46c3.571.547 7.092 1.754 9.65 3.059l-3.11 5.056c-1.764-.832-4.265-1.718-6.542-2.228v7.462c.551.192 1.16.368 1.763.606 3.847 1.4 8.948 3.623 8.948 9.645 0 5.423-4.22 9.14-10.711 9.558v4.172h-4.872zm0-25.502v-6.176c-1.76.328-3.102 1.3-3.102 3.013-.002 1.58 1.194 2.468 3.102 3.163zm4.874 8.906v6.628c1.898-.362 3.434-1.394 3.434-3.244 0-1.638-1.353-2.562-3.434-3.384z"/><path d="m119.329 34.417-36.15.017h-1.046v-.017H41.472l4.903-12.384H17.09l4.905 12.384H17.37c-9.906 0-9.906 15.362.006 15.335h7.583C10.686 53.04 0 65.825 0 81.085c0 17.744 14.436 32.176 32.178 32.176 17.742 0 32.176-14.434 32.176-32.178 0-15.26-10.686-28.046-24.96-31.333H76.54v7.404l.033 125.604c0 5.097 4.14 9.24 9.242 9.24 5.106 0 9.241-4.143 9.241-9.24l-.029-70.754h7.675v70.757c0 5.096 4.137 9.239 9.256 9.239 5.098 0 9.237-4.143 9.237-9.24l-.016-125.604h5.708v49.27c0 9.835 13.863 9.777 13.863-.06V56.675c0-11.87-9.75-22.258-21.421-22.258ZM58.592 81.083c0 14.564-11.85 26.413-26.414 26.413-14.565 0-26.414-11.849-26.414-26.413 0-14.567 11.85-26.416 26.414-26.416 14.565 0 26.414 11.849 26.414 26.416zM38.398 27.456l-2.74 6.944-7.794.015-2.793-6.96h13.327zm115.303 13.183 8.97-.04v-6.934c-.022-1.883.855-3.662 3.204-5.197 2.353-1.547 8.914-4.673 8.924-12.91-.01-8.206-6.9-13.857-12.694-15.074-5.787-1.18-12.06-.392-16.504 4.505-3.995 4.347-4.835 7.803-4.851 15.422h8.967v-1.776c-.018-4.054.452-8.341 6.238-9.53 3.183-.623 6.153.37 7.927 2.08 2.001 1.982 2.016 6.42-1.211 8.62l-5.026 3.423c-2.928 1.897-3.936 3.992-3.943 7.059v10.352zm-.041 12.694V44.15h9.053v9.183z"/></svg>