<svg xmlns="http://www.w3.org/2000/svg" xml:space="preserve" width="177.976" height="192" version="1.0"><path d="m49.63 74.228-3.253-1.466c-5.763-2.598-8.942-3.709-10.218-4.279-.227-.103-1.345-.719-1.875-1.885-1.51-3.377-7.96-19.704-9.408-23.312-1.222-3.055-4.24-7.39-10.444-8.927C7.369 32.61 1.682 37.066 0 44.15v135.79c.048 6.695 4.88 12.088 11.563 12.06 6.676-.021 11.248-5.462 11.227-12.148 0 0-.006-43.194-.013-67.195L19.715 69.29c1.201 2.934 2.684 6.508 3.171 7.365 1.16 2.024 2.299 3.417 4.634 4.517 0 0 13.45 5.565 18.652 7.94 3.134 1.201 6.54.139 8.522-2.36 0 0 5.063-8.379-5.063-12.523z"/><circle cx="86.111" cy="14.156" r="8.333" transform="translate(-45.892 -11.172) scale(1.91852)"/><path d="M137.966 103.207a7.993 7.993 0 0 0 7.994-7.995V50.58c0-8.833-7.158-15.987-15.987-15.987-8.83 0-15.989 7.154-15.989 15.987v39.968l8.01 90.088h.046c.334 6.322 5.521 11.364 11.93 11.364 6.622 0 11.99-5.368 11.99-11.991v-76.874c-2.233 1.693-4.984 2.735-7.995 2.735-7.346 0-10.653-3.312-10.653-10.658V66.57c0-1.055-.704-3.855-1.27-6.103-.75-2.991-1.397-5.568-1.397-7.221h2.661c0 .993.687 3.725 1.24 5.922.734 2.926 1.427 5.689 1.427 7.402v28.643a7.994 7.994 0 0 0 7.992 7.995zm18.912-62.347 8.97-.04v-6.933c-.022-1.884.855-3.662 3.204-5.198 2.353-1.547 8.914-4.673 8.924-12.91-.01-8.205-6.9-13.856-12.694-15.074-5.787-1.18-12.061-.391-16.504 4.506-3.995 4.347-4.835 7.803-4.851 15.421h8.966v-1.775c-.018-4.055.453-8.342 6.239-9.53 3.183-.623 6.153.37 7.927 2.08 2 1.981 2.016 6.42-1.212 8.62l-5.026 3.422c-2.927 1.898-3.935 3.992-3.942 7.06V40.86zm-.042 3.512h9.054v9.183h-9.054z"/><path d="M50.667 32h40v40h-40z" style="fill:#000;fill-opacity:1;stroke:none"/><g transform="scale(2.66666)"><circle cx="18.789" cy="8.095" r="8.097" transform="translate(-7.692 .055) scale(.71945)"/><circle cx="18.789" cy="8.095" r="8.097" transform="matrix(.69493 -.1862 .06393 .23859 -4.986 5.018)"/></g></svg>