<svg xmlns="http://www.w3.org/2000/svg" xml:space="preserve" width="184.32" height="192"><path d="M160.902 25.338C143.8 9.618 121.004 0 96 0 43.066 0 0 43.066 0 96s43.066 96 96 96c26.425 0 50.387-10.733 67.763-28.067l-18.999-18.998C132.255 157.4 115.012 165.12 96 165.12c-38.114 0-69.12-31.006-69.12-69.12 0-38.114 31.006-69.12 69.12-69.12 17.595 0 33.663 6.618 45.878 17.482L119.04 67.2h65.28V1.92l-23.418 23.418z"/><path d="M74.667 77.333h40v40h-40z" style="fill:#000;fill-opacity:1;stroke:none"/></svg>