<svg xmlns="http://www.w3.org/2000/svg" xml:space="preserve" width="192" height="165.333"><circle cx="27.952" cy="15.972" r="7.639" transform="translate(-5.484 66.587) scale(1.97484)"/><path d="M172.798 107.729 161.83 66.587H0l.002 83.652h29.143c0-11.359 9.208-20.57 20.571-20.57 11.362 0 20.572 9.211 20.572 20.57H134.4c0-11.359 9.21-20.57 20.572-20.57 7.993 0 14.906 4.568 18.31 11.23a20.443 20.443 0 0 1 2.183 7.883c.034.484.075.968.075 1.457H192V115.96zm-38.396 0V83.044h23.518l6.577 24.685z"/><path d="M49.717 135.16c-8.332 0-15.086 6.757-15.086 15.085 0 8.332 6.754 15.088 15.086 15.088 8.33 0 15.083-6.756 15.083-15.088 0-8.328-6.756-15.086-15.083-15.086zm105.254 0c-8.331 0-15.09 6.757-15.09 15.085 0 8.332 6.759 15.088 15.09 15.088 8.332 0 15.09-6.756 15.09-15.088 0-8.328-6.758-15.086-15.09-15.086z"/><path d="M31.068 66.438a28.772 28.772 0 0 1-6.812-8.758L11.99 62.285a5.772 5.772 0 0 0-10.391 4.936 5.749 5.749 0 0 0 3.301 3.34 5.756 5.756 0 0 0-.287 4.688 5.774 5.774 0 0 0 11.089-3.042l15.366-5.769zm67.004-26.279a5.749 5.749 0 0 0-3.301-3.34 5.752 5.752 0 0 0 .287-4.688 5.774 5.774 0 0 0-7.437-3.376 5.77 5.77 0 0 0-3.635 6.499L77.47 37.7c.585 2.277.896 4.662.896 7.12 0 1.342-.104 2.665-.288 3.968l9.644-3.621a5.773 5.773 0 0 0 10.35-5.008zm-76.865 4.66c0-2.497.324-4.92.93-7.23l-6.435-2.417A5.772 5.772 0 0 0 4.613 32.13a5.756 5.756 0 0 0 .287 4.688 5.755 5.755 0 0 0-3.301 3.34 5.772 5.772 0 0 0 10.391 4.937l9.481 3.56a29.02 29.02 0 0 1-.264-3.836zm73.489 14.965a5.774 5.774 0 0 0-6.974 2.429l-12.385-4.65a29.126 29.126 0 0 1-6.786 8.769l15.436 5.796a5.77 5.77 0 0 0 3.635 6.498 5.775 5.775 0 0 0 7.437-3.376 5.756 5.756 0 0 0-.287-4.688 5.746 5.746 0 0 0 3.301-3.34 5.776 5.776 0 0 0-3.377-7.438z" style="fill:#000" transform="translate(96.132 -18.263) scale(.97384)"/><path d="M23.729 44.819c0 8.259 4.067 15.613 9.824 20.388.038.019.078.033.115.056l2.368 1.476a1.262 1.262 0 0 1-.669 2.332c-.228 0-.513-.062-.721-.19L34 68.512v6.825C34 76.916 35.478 78 37.058 78h1.134c.625 0 1.133-.692 1.133-1.667 0-.976.791-1.716 1.766-1.716s1.766.814 1.766 1.79c0 .975 1.129 1.777 2.522 1.777 1.393 0 2.522-.784 2.522-1.759 0-.976.904-1.763 2.018-1.763 1.115 0 2.019.791 2.019 1.767 0 .975 1.129 1.767 2.522 1.767 1.393 0 2.521-.79 2.521-1.765 0-.976.791-1.766 1.766-1.766.976 0 1.766.691 1.766 1.667 0 .975.471 1.667 1.051 1.667h1.051C64.193 78 66 76.916 66 75.337v-6.733l-.75.276c-.207.129-.592.19-.818.19-.422 0-.909-.21-1.148-.594-.368-.592-.227-1.369.364-1.738l2.021-1.271c6.397-4.766 10.197-12.238 10.197-20.649 0-14.395-11.631-26.064-26.026-26.064-14.396.001-26.111 11.67-26.111 26.065zm15.18 12.79a8.568 8.568 0 0 1-8.567-8.567c0-1.406.358-2.723.94-3.904.411-.833 1.734-.784 1.734-.784l13.229 1.179s.556.07.706.565c.284.937.525 1.91.525 2.944a8.568 8.568 0 0 1-8.567 8.567zm14.528-8.567c0-1.034.24-2.007.525-2.944.149-.495.705-.565.705-.565l13.229-1.179s1.324-.048 1.734.784c.582 1.181.939 2.498.939 3.904a8.567 8.567 0 1 1-17.132 0zm-3.548 16.136c-.383.732-1.09 1.226-1.903 1.226-1.217 0-2.204-1.103-2.204-2.464 0-.579.18-1.111.479-1.531l1.813-2.032c1.001-1.121 2.625-1.123 3.625-.004l1.81 2.028c.304.421.485.956.485 1.539 0 1.361-.986 2.464-2.203 2.464-.812-.001-1.521-.494-1.902-1.226z" style="fill:#000" transform="translate(96.132 -18.263) scale(.97384)"/></svg>