<svg xmlns="http://www.w3.org/2000/svg" xml:space="preserve" width="192" height="161.25"><path d="M96 0 0 97.906h23v63.344h146V97.906h23l-34.594-35.25V17.25h-26.812v18L96 0zm-.063 57.25H96c11.399 0 22.13 4.445 30.187 12.5 8.057 8.055 12.468 18.766 12.47 30.156-.002 11.407-4.441 22.127-12.5 30.188-8.062 8.063-18.783 12.5-30.188 12.5-11.393 0-22.101-4.437-30.157-12.5-8.058-8.068-12.476-18.816-12.468-30.219-.008-11.38 4.416-22.068 12.468-30.125 8.053-8.057 18.739-12.5 30.125-12.5zm0 9.5c-7.031 0-13.72 2.182-19.312 6.219l46.25 46.312c3.942-5.457 6.281-12.146 6.281-19.375 0-18.266-14.878-33.156-33.156-33.156h-.063zM69.47 80.031a32.772 32.772 0 0 0-6.625 19.844c-.007 8.87 3.458 17.203 9.718 23.469 6.259 6.264 14.555 9.719 23.407 9.719a33.027 33.027 0 0 0 19.875-6.625L69.469 80.03z"/></svg>