<svg xmlns="http://www.w3.org/2000/svg" xml:space="preserve" width="167.488" height="192" version="1.0"><path d="M132.927 42.537c6.742.003 13.3-6.55 13.292-14.627.007-8.088-6.55-14.636-14.622-14.617-8.088-.019-14.644 6.53-14.621 14.617 1.308 8.077 7.864 14.63 15.95 14.627zm-18.61 26.585.092 114.315c-1.189 11.458 15.9 11.357 15.86-.268l.09-66.193h2.568v66.11c1.308 11.678 18.598 11.97 18.61.353V69.122h2.658v40.158c-.246 9.899 13.323 9.899 13.293.177V64.464c.032-12.142-9.088-19.275-18.689-19.269h-27.097c-6.42-.002-11.077 2.508-15.022 8.045L92.995 71.78H69.299c-9.582-.057-9.05 13.327-.177 13.293h27.362c2.128 1.26 4.735.471 6.26-1.782l11.573-14.17zM0 0v191.415h45.195V0H0z"/><path d="M18.61 39.878h39.878v39.878H18.61z" style="fill:#000;fill-opacity:1;stroke:none"/></svg>