<svg xmlns="http://www.w3.org/2000/svg" xml:space="preserve" width="192" height="165.333"><circle cx="27.952" cy="15.972" r="7.639" transform="translate(-5.484 66.587) scale(1.97484)"/><path d="M172.798 107.729 161.83 66.587H0l.002 83.652h29.143c0-11.359 9.208-20.57 20.571-20.57 11.362 0 20.572 9.211 20.572 20.57H134.4c0-11.359 9.21-20.57 20.572-20.57 7.993 0 14.906 4.568 18.31 11.23a20.443 20.443 0 0 1 2.183 7.883c.034.484.075.968.075 1.457H192V115.96zm-38.396 0V83.044h23.518l6.577 24.685z"/><path d="M49.717 135.16c-8.332 0-15.086 6.757-15.086 15.085 0 8.332 6.754 15.088 15.086 15.088 8.33 0 15.083-6.756 15.083-15.088 0-8.328-6.756-15.086-15.083-15.086zm105.254 0c-8.331 0-15.09 6.757-15.09 15.085 0 8.332 6.759 15.088 15.09 15.088 8.332 0 15.09-6.756 15.09-15.088 0-8.328-6.758-15.086-15.09-15.086zM144.3 15.09c4.332-5.328 10.563-9.05 17.655-10.118l-3.234-4.03c-1.683-1.741-5.321-.996-9.896 1.646-4.576 2.642-7.04 5.419-6.374 7.746l1.85 4.755zm21.869-1.04a1.76 1.76 0 0 0-1.761 1.76v15.265h-15.264a1.761 1.761 0 1 0 0 3.522h17.025c.972 0 1.761-.789 1.761-1.761V15.81c0-.973-.789-1.761-1.761-1.761zm21.868 1.04c-4.33-5.328-10.562-9.05-17.654-10.118l3.235-4.03c1.682-1.741 5.32-.996 9.896 1.646 4.575 2.642 7.038 5.419 6.373 7.746l-1.85 4.755z"/><path d="M166.169 7.004c-14.243 0-25.831 11.588-25.831 25.831 0 14.244 11.588 25.832 25.83 25.832 14.244 0 25.832-11.588 25.832-25.832 0-14.243-11.588-25.83-25.831-25.83zm0 48.14c-12.301 0-22.309-10.008-22.309-22.308s10.008-22.31 22.309-22.31c12.301 0 22.308 10.009 22.308 22.31 0 12.3-10.007 22.308-22.308 22.308z"/></svg>