<svg xmlns="http://www.w3.org/2000/svg" xml:space="preserve" width="113.635" height="192"><path d="M113.633 89.144c0-8.35-4.383-9.796-9.796-9.796-5.412 0-9.797 4.385-9.797 9.796v38.202h-3.917V21.552c0-5.41-4.385-9.796-9.798-9.796a9.794 9.794 0 0 0-9.796 9.796v75.427h-3.918V9.796C66.612 4.389 62.225 0 56.817 0c-5.41 0-9.796 4.39-9.796 9.796v87.183h-3.919V21.552a9.795 9.795 0 0 0-9.796-9.796 9.795 9.795 0 0 0-9.796 9.796v81.306h-3.918V56.817c0-5.409-4.386-9.796-9.796-9.796C4.387 47.02 0 51.408 0 59.756v81.306c.01 25.506 25.434 50.93 56.817 50.938 31.382-.008 56.809-25.432 56.816-56.817l.002-.002-.002-46.037z"/></svg>