<svg xmlns="http://www.w3.org/2000/svg" xmlns:xlink="http://www.w3.org/1999/xlink" xml:space="preserve" width="192" height="171.754"><g transform="translate(35.452 10.623) scale(.7432)"><defs><path id="a" d="M0 0h100v100H0z"/></defs><clipPath id="b"><use xlink:href="#a" width="100" height="100" overflow="visible" style="overflow:visible"/></clipPath><g clip-path="url(#b)" transform="translate(-51.968 -24.822) scale(2.66667)"><defs><path id="c" d="M0 0h100v100H0z"/></defs><clipPath id="d"><use xlink:href="#c" width="100" height="100" overflow="visible" style="overflow:visible"/></clipPath><path d="M49.608 3.984a2.86 2.86 0 0 0-2.043 1.429L1.975 86.211a3.015 3.015 0 0 0 0 2.914c.508.897 1.448 1.485 2.472 1.485h91.182c1.022 0 1.965-.588 2.473-1.485.5-.885.5-2.025 0-2.914L52.511 5.413c-.585-1.042-1.717-1.619-2.903-1.429m.43 13.33L87.401 83.02h-74.78z" clip-path="url(#d)" style="fill:#000"/><path d="M54.039 74.536c0 2.12-1.682 3.838-3.753 3.838-2.072 0-3.752-1.718-3.752-3.838 0-2.119 1.68-3.838 3.752-3.838 2.071 0 3.753 1.719 3.753 3.838" clip-path="url(#d)" style="fill:#000"/><ellipse cx="50.287" cy="74.536" clip-path="url(#d)" rx="3.752" ry="3.838" style="fill:#000;stroke:#010101;stroke-width:2;stroke-linecap:round"/><path d="M48.437 30.16h3.309c1.678 0 3.029 2.198 3.029 4.929L53.36 57.685c0 2.732-1.351 4.93-3.028 4.93h-.479c-1.68 0-3.031-2.197-3.031-4.93l-1.414-22.596c0-2.731 1.351-4.929 3.029-4.929" clip-path="url(#d)" style="fill:#000"/><path d="M48.437 30.16h3.309c1.678 0 3.029 2.198 3.029 4.929L53.36 57.685c0 2.732-1.351 4.93-3.028 4.93h-.479c-1.68 0-3.031-2.197-3.031-4.93l-1.414-22.596c0-2.731 1.351-4.929 3.029-4.929z" clip-path="url(#d)" style="fill:#000;stroke:#010101;stroke-width:1.898;stroke-linecap:round" transform="translate(0 1.345)"/></g></g></svg>