<svg xmlns="http://www.w3.org/2000/svg" xml:space="preserve" width="166.027" height="192" viewBox="0 0 307.15 356.559"><path d="M123.585 314.624h74.728v41.933h-74.728zm109.789 0h74.73v41.933h-74.73zm-109.789-2.859h184.52v-267.2h-184.52v267.2zm130.68-248.593h35.06v43.364h-35.06V63.172zm0 56.679h35.06v43.364h-35.06v-43.364zm0 58.502h35.06v43.365h-35.06v-43.365zm0 64.03h35.06v43.365h-35.06v-43.364zm-55.952-179.21h35.062v43.363h-35.062V63.172zm0 56.678h35.062v43.364h-35.062v-43.364zm0 58.502h35.062v43.365h-35.062v-43.365zm0 64.03h35.062v43.365h-35.062v-43.364zM143.37 63.174h35.063v43.363H143.37V63.172zm0 56.678h35.063v43.364H143.37v-43.364zm0 58.502h35.063v43.365H143.37v-43.365zm0 64.03h35.063v43.365H143.37v-43.364zM123.585 41.706h184.518V16.727h-36.31V0H159.895v16.727h-36.31zM54.4 61.085l27.87-13.463c4.004-1.847 1.394-7.67-2.77-5.723L55.872 52.417V24.55c-.086-4.464-6.725-4.264-6.64 0v33.399c.019 2.567 2.725 4.378 5.167 3.137z"/><path d="M54.586 0C24.318-.057-.174 24.435-.22 54.635c.05 30.211 24.541 54.692 54.806 54.62 30.15.072 54.628-24.409 54.628-54.62 0-30.2-24.478-54.692-54.628-54.635zm0 100.032c-25.134.014-45.468-20.327-45.4-45.397-.068-25.076 20.266-45.407 45.4-45.41 25.012.003 45.347 20.334 45.396 45.41-.053 25.073-20.387 45.411-45.396 45.397z"/></svg>