<svg xmlns="http://www.w3.org/2000/svg" xml:space="preserve" width="165.891" height="192" version="1.0"><path d="m49.63 74.228-3.253-1.466c-5.763-2.598-8.942-3.709-10.218-4.278-.226-.104-1.345-.72-1.874-1.886-1.51-3.377-7.96-19.703-9.409-23.312-1.222-3.055-4.24-7.39-10.444-8.927C7.37 32.61 1.682 37.066 0 44.15v135.791c.048 6.693 4.88 12.086 11.563 12.059 6.676-.02 11.248-5.462 11.227-12.148 0 0-.006-43.194-.013-67.194l-3.062-43.369c1.201 2.934 2.684 6.508 3.172 7.366 1.158 2.024 2.298 3.417 4.633 4.516 0 0 13.45 5.566 18.652 7.94 3.135 1.202 6.54.139 8.522-2.36 0 0 5.063-8.379-5.063-12.523z"/><circle cx="86.111" cy="14.156" r="8.333" transform="matrix(-1.91853 0 0 1.91853 295.18 -11.172)"/><path d="M124.655 103.207a7.993 7.993 0 0 1-7.995-7.994V50.58c0-8.833 7.158-15.987 15.987-15.987 8.83 0 15.99 7.154 15.99 15.987v39.969l-8.01 90.088h-.047c-.333 6.321-5.521 11.363-11.929 11.363-6.623 0-11.99-5.368-11.99-11.99v-76.874c2.232 1.692 4.984 2.734 7.994 2.734 7.346 0 10.653-3.311 10.653-10.657V66.569c0-1.055.704-3.854 1.27-6.103.75-2.99 1.397-5.567 1.397-7.221h-2.66c0 .994-.688 3.726-1.24 5.922-.735 2.926-1.428 5.689-1.428 7.402v28.644a7.994 7.994 0 0 1-7.992 7.994z"/><path d="M50.667 32h40v40h-40z" style="fill:#000;fill-opacity:1;stroke:none"/><path d="M163.705 40.861h-4.548l-2.32-23.098V.22h9.054v17.542zm-6.867 3.509h9.053v9.185h-9.053z"/><g transform="translate(123.96 19.872) scale(2.66667)"><circle cx="18.789" cy="8.095" r="8.097" transform="translate(-54.177 -7.45) scale(.71945)"/><circle cx="18.789" cy="8.095" r="8.097" transform="matrix(.69493 -.1862 .06393 .23859 -51.47 -2.488)"/></g></svg>