<svg xmlns="http://www.w3.org/2000/svg" xml:space="preserve" width="192" height="192" version="1.0"><path d="m29.412 32.893 15.007-7.25c2.156-.994.75-4.13-1.492-3.081l-12.722 5.664V13.219c-.046-2.404-3.62-2.296-3.575 0v17.985c.01 1.382 1.467 2.357 2.782 1.69z"/><path d="M29.512 0C13.213-.03.025 13.158 0 29.42c.027 16.268 13.215 29.45 29.512 29.412 16.235.039 29.416-13.144 29.416-29.412 0-16.262-13.18-29.45-29.416-29.42zm0 53.865C15.978 53.873 5.028 42.92 5.065 29.42 5.028 15.917 15.978 4.969 29.512 4.967c13.469.002 24.418 10.95 24.445 24.453-.029 13.501-10.978 24.453-24.445 24.445z"/><path d="M56 152h40v40H56zm48 0h40v40h-40zm48 0h40v40h-40zm-48-48h40v40h-40zm48 0h40v40h-40zm0-48h40v40h-40z" style="fill:#000;fill-opacity:1;stroke:none"/><path d="M58.353 106.353h35.294v35.294H58.353zm48-48h35.294v35.294h-35.294zm-48 0h35.294v35.294H58.353z" style="fill:none;stroke:#000;stroke-width:4.70588255;stroke-linecap:butt;stroke-linejoin:miter;stroke-miterlimit:4;stroke-opacity:1;stroke-dasharray:none"/></svg>