<svg xmlns="http://www.w3.org/2000/svg" xml:space="preserve" width="192" height="192" version="1.0"><path d="M56 152h40v40H56zm48 0h40v40h-40zm48 0h40v40h-40zm-48-48h40v40h-40zm48 0h40v40h-40zm0-48h40v40h-40z" style="fill:#000;fill-opacity:1;stroke:none"/><path d="M58.353 106.353h35.294v35.294H58.353zm48-48h35.294v35.294h-35.294zm-48 0h35.294v35.294H58.353z" style="fill:none;stroke:#000;stroke-width:4.70588255;stroke-linecap:butt;stroke-linejoin:miter;stroke-miterlimit:4;stroke-opacity:1;stroke-dasharray:none"/><path d="M27.029 44.83 24.47 19.35V0h9.986v19.35l-2.41 25.48zm-2.559 3.871h9.988v10.131H24.47z"/></svg>