<svg xmlns="http://www.w3.org/2000/svg" xml:space="preserve" width="189.475" height="192" version="1.0"><path d="m148.409 74.14-3.257-1.468c-5.767-2.6-8.949-3.71-10.225-4.281-.227-.104-1.346-.72-1.876-1.887-1.511-3.38-7.966-19.718-9.416-23.33-1.223-3.056-4.243-7.396-10.452-8.933-7.067-1.75-12.759 2.709-14.442 9.8v135.892c.048 6.697 4.882 12.094 11.571 12.067 6.682-.021 11.257-5.466 11.236-12.157 0 0-.006-43.226-.013-67.245l-3.064-43.4c1.202 2.935 2.686 6.512 3.173 7.37 1.16 2.026 2.3 3.42 4.637 4.52 0 0 13.461 5.57 18.666 7.946 3.137 1.202 6.545.139 8.529-2.361 0 0 5.067-8.386-5.067-12.534z"/><path d="M149.445 31.88h40.03v40.03h-40.03z" style="fill:#000;fill-opacity:1;stroke:none"/><path d="m54.7 64.068-3.57-.107c-6.324-.191-9.688.001-11.086-.036-.249-.01 2.802 3.746 2.272 2.579-1.51-3.38-15.972-19.718-17.421-23.33-1.223-3.056-4.243-7.396-10.453-8.933C7.375 32.49 1.684 36.95 0 44.04v135.892C.048 186.63 4.883 192.027 11.572 192c6.681-.021 11.256-5.466 11.235-12.157 0 0-.006-43.226-.013-67.245L19.73 61.191c1.202 2.936 10.692 14.519 11.18 15.377 1.16 2.026 3.435 2.277 6.015 2.398 0 0 14.567-.015 20.286.186 3.358-.092 6.098-2.38 6.972-5.45 0 0 1.467-9.687-9.483-9.635z"/><circle cx="18.789" cy="8.095" r="8.097" transform="translate(-20.528 .004) scale(1.91996)"/><g transform="translate(98.74 -.144) scale(2.66867)"><circle cx="18.789" cy="8.095" r="8.097" transform="translate(-7.692 .055) scale(.71945)"/><circle cx="18.789" cy="8.095" r="8.097" transform="matrix(.69493 -.1862 .06393 .23859 -4.986 5.018)"/></g><path d="m44.476 74.193 3.921-9.603c1.647-3.863-3.977-4.544-3.977-4.544-1.25-.626 0-1.307 0-1.307 1.306.282 2.273-1.363 2.273-1.363l.737-1.535c.398-.909.512-1.023.057-2.783-.454-1.763.994-1.678 1.25-1.422.256.257 1.052.653 1.648.057.596-.597 2.102-.567 2.102-.567l.568-1.137h.626l.624 1.136h11.023v.34h23.069l.455-.567c.056-.456.397-.796.397-.796 1.876 0 2.272 1.42 2.272 1.42H93c.851 1.535-.059 3.239-.059 3.239h-1.647v4.602h-3.466l-.283.74h-8.638c-8.067 0-6.646 6.76-6.646 6.76-6.08 2.785-9.887 1.024-9.887 1.024-3.012-.625-3.58 1.931-3.58 1.931l-2.044 8.126c-.171 1.42.07 2.27.07 2.27l-.005.117h.005v1.147s.047.62-.811.524l-9.534-.802c-.231.39-2.462.06-2.462-.672 0-.146-.218-.356-.218-.356-.682-3.807.681-5.979.681-5.979zm15.739-9.586c.17 1.024 1.25 1.39 1.25 1.39 3.687 1.238 5.244.89 7.115.328 2.283-.687 2.13-2.685 2.13-2.685 0-3.01-2.314-2.346-2.314-2.346H65.84c-1.422 3.409 1.234 4.134 1.234 4.134.456.113 0 .455 0 .455-2.102-.057-2.995-3.264-2.995-3.264l.056-.813-.794-.512c-3.126 0-3.297 2.291-3.126 3.313z"/></svg>