<svg xmlns="http://www.w3.org/2000/svg" xml:space="preserve" width="192" height="192"><path d="M181.333 112H0v13.333h10.667V192h170.666v-66.667H192V112zm-88-48H50.668C37.334 64 32 74.666 32 82.666v24.001h13.333V85.333h5.334v21.334h42.666V85.333h5.334v21.334H112V82.666c.002-8-5.33-18.666-18.667-18.666z"/><path d="M120 66.667h40v40h-40z" style="fill:#000;fill-opacity:1;stroke:none"/><g transform="translate(200.085 -31.93) scale(2.66667)"><circle cx="18.789" cy="8.095" r="8.097" transform="translate(-62.118 22.974) scale(.74102)"/><circle cx="18.789" cy="8.095" r="8.097" transform="matrix(.71577 -.19179 .06585 .24574 -59.33 28.085)"/></g><path d="M183.411 8.588C177.871 3.051 170.506 0 162.67 0h-.036c-7.828 0-15.187 3.05-20.723 8.59s-8.582 12.901-8.577 20.724c-.005 7.84 3.043 15.21 8.583 20.757 5.538 5.543 12.901 8.595 20.734 8.595h.001c7.841 0 15.213-3.051 20.755-8.595 5.541-5.541 8.593-12.912 8.594-20.754 0-7.83-3.05-15.191-8.589-20.729zM162.67 6.541c12.566 0 22.79 10.218 22.79 22.776a22.68 22.68 0 0 1-4.308 13.324l-31.798-31.826c3.845-2.775 8.447-4.274 13.28-4.274h.036zm-16.126 38.906c-4.304-4.308-6.672-10.035-6.667-16.133a22.57 22.57 0 0 1 4.543-13.661l31.892 31.918a22.691 22.691 0 0 1-13.66 4.555 22.62 22.62 0 0 1-16.108-6.679z"/></svg>