<svg xmlns="http://www.w3.org/2000/svg" xml:space="preserve" width="192" height="192" viewBox="0 0 1520.64 1520.64"><path d="M1279.436 84.48 1520.64 335.7v1184.94H528.004l-.008-1436.16zM633.6 1415.04h781.44V401.28h-211.2v-211.2H633.6zm105.6-654.72h570.24v-84.48H739.2zm0 211.2h570.24v-84.48H739.2zm0 211.2h570.24v-84.48H739.2z" style="fill:#000"/><path d="m232.945 260.514 118.852-57.419c17.076-7.877 5.945-32.709-11.816-24.406l-100.756 44.858V104.695c-.365-19.038-28.68-18.186-28.314 0v142.437c.076 10.949 11.617 18.674 22.034 13.382z"/><path d="M233.735 0C104.65-.243.198 104.21 0 233.006.213 361.848 104.665 466.254 233.735 465.95c128.584.304 232.975-104.102 232.975-232.944C466.71 104.209 362.32-.243 233.735 0zm0 426.612c-107.189.061-193.91-86.691-193.62-193.606-.29-106.946 86.431-193.652 193.62-193.667 106.672.016 193.393 86.721 193.606 193.667-.228 106.93-86.95 193.667-193.606 193.606z"/></svg>