<svg xmlns="http://www.w3.org/2000/svg" xml:space="preserve" width="192" height="190.158" viewBox="0 0 1520.639 1506.051"><path d="M1520.639 692.376V809.76H0V692.376h717.635V465.614h440.185v226.762h362.819zm-144.06 174.034v639.641H632.265v-392.164H408.17v392.164H141.393v-637.6H1376.6zm-356.82 90.077H827.013v232.098h192.08V956.386zm250.444 0h-192.417v232.098h192.08V956.386z" style="fill:#000"/><path d="M251.786 0h42.907v112.334h-42.907zm302.87 262.085-8.482-42.035-110.115 22.241 8.497 42.035zM455.679 66.709l-79.425 79.423 30.339 30.336 79.422-79.438zM8.482 220.05 0 262.085l110.097 22.241 8.498-42.035zm412.514 175.035-38.044-206.9c-4.087-22.42-28.454-39.27-54.688-39.27h-88.289c-26.249 0-50.567 16.85-54.654 39.27l-38.078 206.9c-.257 1.481-.208 2.866-.386 21.404H95.13v48.346h377.977V416.49h-51.725c-.163-18.54-.112-19.923-.387-21.404zm-142.09-1.867V179.397h39.444c20.343 0 39.236 13.037 42.408 30.418l29.517 160.471c.227 1.191.16 2.35.306 22.934H278.906zM98.961 66.709l-30.32 30.32 79.422 79.439 30.336-30.336z"/></svg>