<svg xmlns="http://www.w3.org/2000/svg" xml:space="preserve" width="164.905" height="191.999" version="1.0"><path d="M128.724 30.206c-8.351.017-15.111-6.737-15.104-15.104C113.613 6.783 120.373.023 128.724 0c8.33.023 15.093 6.783 15.106 15.102-.013 8.365-6.775 15.122-15.106 15.104z"/><path d="M146.798 33.62c11.158 0 18.107 9.11 18.107 20.46v48.348c0 9.404-12.434 9.404-12.434 0v-47.08h-3.923v127.779c0 4.875-3.937 8.872-8.812 8.872-4.885 0-8.873-3.997-8.873-8.872v-74.12h-3.923v74.12c0 4.875-3.934 8.872-8.813 8.872-4.878 0-8.812-3.997-8.812-8.872l-.06-128.442v-.121h-1.57l-4.466 14.305c-2.086 6.047-7.434 7.487-11.589 2.293L75.454 51.546c-5.12-6.606 4.063-13.554 9.356-7.786l9.657 11.468c-.014.183 1.81-6.338 1.81-6.338 2.176-7.625 9.393-15.121 20.22-15.27h30.302z" style="fill:#000"/><path d="M80.214 13.835v30.112H66.666V13.835zM50.078 8.588C44.538 3.051 37.172 0 29.336 0H29.3C21.47 0 14.113 3.05 8.576 8.59 3.041 14.13-.005 21.49 0 29.314c-.005 7.84 3.042 15.21 8.582 20.757 5.538 5.543 12.902 8.595 20.734 8.595h.002c7.84 0 15.212-3.051 20.754-8.595 5.542-5.541 8.594-12.912 8.595-20.754-.001-7.83-3.05-15.191-8.59-20.729zM29.336 6.541c12.566 0 22.79 10.218 22.79 22.776a22.68 22.68 0 0 1-4.309 13.324L16.02 10.815c3.844-2.775 8.446-4.274 13.28-4.274h.036zM13.21 45.447C8.906 41.14 6.538 35.412 6.542 29.314a22.57 22.57 0 0 1 4.544-13.661L42.977 47.57a22.691 22.691 0 0 1-13.66 4.555 22.62 22.62 0 0 1-16.107-6.679z"/></svg>