<svg xmlns="http://www.w3.org/2000/svg" xml:space="preserve" width="192" height="165.333"><circle cx="27.952" cy="15.972" r="7.639" transform="translate(-5.484 66.587) scale(1.97484)"/><path d="M172.798 107.729 161.83 66.587H0l.002 83.652h29.143c0-11.359 9.208-20.57 20.571-20.57 11.362 0 20.572 9.211 20.572 20.57H134.4c0-11.359 9.21-20.57 20.572-20.57 7.993 0 14.906 4.568 18.31 11.23a20.443 20.443 0 0 1 2.183 7.883c.034.484.075.968.075 1.457H192V115.96zm-38.396 0V83.044h23.518l6.577 24.685z"/><path d="M49.717 135.16c-8.332 0-15.086 6.757-15.086 15.085 0 8.332 6.754 15.088 15.086 15.088 8.33 0 15.083-6.756 15.083-15.088 0-8.328-6.756-15.086-15.083-15.086zm105.254 0c-8.331 0-15.09 6.757-15.09 15.085 0 8.332 6.759 15.088 15.09 15.088 8.332 0 15.09-6.756 15.09-15.088 0-8.328-6.758-15.086-15.09-15.086zM183.41 8.588C177.872 3.051 170.506 0 162.67 0h-.036c-7.829 0-15.187 3.05-20.723 8.59s-8.582 12.901-8.577 20.724c-.005 7.84 3.043 15.21 8.582 20.757 5.539 5.543 12.902 8.596 20.734 8.596h.002c7.841 0 15.213-3.052 20.755-8.596 5.54-5.541 8.593-12.912 8.594-20.754 0-7.83-3.05-15.191-8.589-20.729zm-20.74-2.047c12.566 0 22.79 10.218 22.79 22.776a22.68 22.68 0 0 1-4.309 13.324l-31.797-31.826c3.844-2.775 8.446-4.274 13.28-4.274h.036zm-16.126 38.906c-4.304-4.308-6.672-10.035-6.668-16.133a22.573 22.573 0 0 1 4.544-13.661l31.891 31.919a22.691 22.691 0 0 1-13.659 4.554 22.62 22.62 0 0 1-16.108-6.679z"/></svg>