<svg xmlns="http://www.w3.org/2000/svg" xml:space="preserve" width="192" height="162.669"><path d="M181.333 82.669H0v13.333h10.667v66.667h170.666V96.002H192V82.67zm-88-48H50.668C37.334 34.669 32 45.335 32 53.335v24.001h13.333V56.002h5.334v21.334h42.666V56.002h5.334v21.334H112V53.335c.002-8-5.33-18.666-18.667-18.666z"/><path d="M120 37.336h40v40h-40z" style="fill:#000;fill-opacity:1;stroke:none"/><g transform="translate(200.085 -61.26) scale(2.66667)"><circle cx="18.789" cy="8.095" r="8.097" transform="translate(-62.118 22.974) scale(.74102)"/><circle cx="18.789" cy="8.095" r="8.097" transform="matrix(.71577 -.19179 .06585 .24574 -59.33 28.085)"/></g></svg>