<svg xmlns="http://www.w3.org/2000/svg" xml:space="preserve" width="178.667" height="192" version="1.0"><path d="M144 24H99.917L88 34.667h10.667v4C99.917 52.657 110.98 64 124.625 64c13.645 0 24.709-11.343 24.709-25.333V24H144zm4.307-7.891h-50.72L86.701 0h61.605zM165.334 72h-2.074l-62.236 80H152v13.334H88V192h90.667V85.683C178.356 78.124 172.525 72 165.334 72zm-18.667 0H81.853l-.002.037c-2.992.01-5.912 1.026-7.812 3.4-7.43 9.303-14.86 18.61-22.288 27.915-10.966-8.27-21.932-16.54-32.892-24.81-5.149-3.881-13.233-.803-16.192 4.205-3.558 6.02-.876 12.173 4.246 16.034 13.08 9.866 26.162 19.736 39.243 29.606.39.318.773.644 1.212.912.158.12.315.237.471.358 2.285 1.722 5.153 2.07 7.895 1.487 2.493-.283 4.836-1.307 6.444-3.32.104-.133.209-.267.315-.398a11.05 11.05 0 0 0 1.32-1.652c8.544-9.797 16.364-19.592 24.187-29.393v50.286L146.667 72z"/><path d="M0 32h40v40H0z" style="fill:#000;fill-opacity:1;stroke:none"/></svg>