<svg xmlns="http://www.w3.org/2000/svg" xml:space="preserve" width="192" height="149.333" version="1.0"><path d="M67.026 149.131c-6.677 0-12.073-5.427-12.073-12.102 0-6.67 5.396-12.067 12.073-12.067 6.667 0 12.095 5.397 12.095 12.067 0 6.677-5.426 12.102-12.095 12.102m91.817.202c-6.668 0-12.072-5.397-12.072-12.067 0-6.677 5.404-12.104 12.072-12.104 6.677 0 12.103 5.427 12.103 12.104 0 6.67-5.426 12.067-12.103 12.067m-122.553-.202c-6.667 0-12.07-5.427-12.07-12.102 0-6.67 5.403-12.067 12.07-12.067 6.677 0 12.104 5.397 12.104 12.067 0 6.677-5.425 12.102-12.104 12.102"/><path d="m144.186 65.447.336 47.726s1.38.87 1.622-.918c.87-6.365 2.554-23.958 3.942-35.042h28.431l12.741 29.42-2.931 22.068H192v7.118h-18.4c-.232-18.169-29.08-17.727-29.416-.405l-61.799-.336c-2.19-16.418-22.815-13.719-32.348-13.719-9.333 0-26.993-2.968-28.439 13.984H0V65.447h144.186zm37.903 38.892-8.15-20.594h-17.995l-.338.983-.939 19.609h27.422zm-13.297-59.636 9.866-.045v-7.626c-.023-2.072.94-4.029 3.525-5.718 2.588-1.7 9.805-5.14 9.817-14.2-.012-9.027-7.59-15.243-13.964-16.582-6.366-1.298-13.267-.43-18.154 4.956-4.395 4.782-5.32 8.583-5.337 16.964h9.864v-1.953c-.02-4.46.497-9.176 6.862-10.484 3.501-.685 6.768.407 8.72 2.289 2.2 2.18 2.217 7.062-1.333 9.482l-5.529 3.765c-3.22 2.087-4.328 4.39-4.336 7.764v11.388h-.001zm9.913 13.964h-9.959V48.565h9.959z"/></svg>