<svg xmlns="http://www.w3.org/2000/svg" xml:space="preserve" width="192" height="192"><path d="M192 30.557V0L0 192h30.559v-15.377h7.687V192h19.22v-15.377h7.687V192h19.22v-15.377h7.687V192h19.22v-15.377h7.687V192h19.221v-15.377h7.688V192h19.219v-15.377h7.688V192H192v-19.221h-15.377v-7.688H192v-19.219h-15.377v-7.688H192v-19.219h-15.377v-7.688H192V92.058h-15.377v-7.687H192V65.15h-15.377v-7.687H192v-19.22h-15.377v-7.687H192zM165.093 165.09H64.96L165.093 64.96v100.132zM13.333 0H32v36.168l-4.506 47.626h-9.379l-4.782-47.626zm.001 91.03H32v18.936H13.334z"/></svg>