<svg xmlns="http://www.w3.org/2000/svg" xml:space="preserve" width="166.027" height="192" viewBox="0 0 307.15 356.559"><path d="M61.316 314.624h184.52v41.933H61.316zm-.001-2.859h184.52v-267.2H61.315zm130.68-211.451h35.06v6.222h-35.06zm0 56.679h35.06v6.222h-35.06zm0 58.502h35.06v6.223h-35.06zm0 64.03h35.06v6.223h-35.06zm-55.952-179.211h35.062v6.222h-35.062zm0 56.679h35.062v6.222h-35.062zm0 58.502h35.062v6.223h-35.062zm0 64.03h35.062v6.223h-35.062zM81.1 100.314h35.063v6.222H81.1zm0 56.679h35.063v6.222H81.1zm0 58.502h35.063v6.223H81.1zm0 64.03h35.063v6.223H81.1zM245.834 16.727h-36.31V0H97.626v16.727h-36.31v24.98h184.518z"/></svg>