<svg xmlns="http://www.w3.org/2000/svg" xml:space="preserve" width="190.239" height="192" version="1.0"><path d="M95.119 0C42.62-.035.048 42.96 0 95.95c.048 53.078 42.62 96.067 95.119 96.05 52.52.017 95.084-42.972 95.12-96.05C190.203 42.96 147.636-.035 95.119 0zm0 169.883c-40.397 0-73.147-33.083-73.104-73.935-.044-40.765 32.707-73.845 73.104-73.83 40.414-.015 73.167 33.067 73.21 73.832-.043 40.85-32.798 73.933-73.21 73.933z"/><path d="m85.252 129.901 21.5-.098v-16.62c-.05-4.513 2.05-8.777 7.682-12.458 5.64-3.708 21.367-11.201 21.392-30.947-.025-19.67-16.54-33.215-30.43-36.134-13.872-2.83-28.911-.939-39.561 10.8-9.577 10.42-11.591 18.705-11.63 36.968H75.7v-4.257c-.043-9.719 1.084-19.995 14.955-22.846 7.63-1.492 14.749.887 19.002 4.988 4.796 4.75 4.832 15.389-2.905 20.663l-12.048 8.204c-7.018 4.549-9.433 9.57-9.45 16.921v24.816h-.002zm21.602 30.43H85.152v-22.013h21.702z"/></svg>