<svg xmlns="http://www.w3.org/2000/svg" xml:space="preserve" width="140.24" height="192" version="1.0"><path d="M41.21 139.425c0-6.28 5.09-11.364 11.368-11.364 6.277 0 11.365 5.084 11.365 11.364 0 6.279-5.088 11.365-11.365 11.365-6.276 0-11.368-5.088-11.368-11.365zm15.761-52.39a52.488 52.488 0 0 0-8.79 0l-5.197 14.173a39.517 39.517 0 0 0-10.62 4.404l-13.73-6.342a52.764 52.764 0 0 0-6.213 6.215l6.35 13.7a39.393 39.393 0 0 0-4.397 10.621L.183 135.031a52.923 52.923 0 0 0 0 8.791l14.175 5.196a39.407 39.407 0 0 0 4.401 10.616l-6.338 13.731a52.746 52.746 0 0 0 6.213 6.214l13.7-6.348a39.34 39.34 0 0 0 10.621 4.391l5.224 14.195a52.9 52.9 0 0 0 8.79 0l5.198-14.178a39.347 39.347 0 0 0 10.617-4.4l13.73 6.34a52.909 52.909 0 0 0 6.215-6.214l-6.351-13.697a39.442 39.442 0 0 0 4.397-10.625l14.19-5.223a52.923 52.923 0 0 0 0-8.791l-14.173-5.196a39.528 39.528 0 0 0-4.404-10.62l6.34-13.728a52.764 52.764 0 0 0-6.214-6.215l-13.697 6.35a39.58 39.58 0 0 0-10.624-4.397l-5.222-14.189z"/><path d="M79.65 54.436c-2.4-5.8.355-12.447 6.154-14.851 5.798-2.4 12.45.355 14.847 6.154 2.404 5.8-.353 12.447-6.15 14.849-5.798 2.402-12.447-.351-14.85-6.152zM74.165 0a52.696 52.696 0 0 0-8.122 3.362l.624 15.087a39.39 39.39 0 0 0-8.125 8.132l-15.113-.605a52.974 52.974 0 0 0-3.364 8.121l11.11 10.226a39.36 39.36 0 0 0 .003 11.496L40.065 66.073a52.593 52.593 0 0 0 3.364 8.122l15.086-.624a39.297 39.297 0 0 0 8.13 8.125l-.604 15.111a52.783 52.783 0 0 0 8.122 3.364l10.226-11.11a39.38 39.38 0 0 0 11.493-.003l10.26 11.113a53.202 53.202 0 0 0 8.12-3.366l-.62-15.082a39.427 39.427 0 0 0 8.122-8.133l15.112.605a53.167 53.167 0 0 0 3.364-8.122l-11.11-10.226a39.4 39.4 0 0 0-.005-11.493l11.113-10.26a52.853 52.853 0 0 0-3.362-8.12l-15.087.624a39.335 39.335 0 0 0-8.13-8.126l.603-15.112a53.016 53.016 0 0 0-8.12-3.36L95.919 11.107a39.49 39.49 0 0 0-11.495.004L74.165 0z"/></svg>