<svg xmlns="http://www.w3.org/2000/svg" xml:space="preserve" width="192" height="161.25"><path d="M96 0 0 97.906h23v63.344h62.187V90.687h-2.156v26c0 5.194-6.875 5.194-6.875 0V89.97c0-6.269 3.87-11.281 10.031-11.281h19.5c6.762 0 10.157 5.658 10.157 11.437v26.563c.015 5.231-6.813 5.231-6.813 0v-26h-2.125l-.031 70.562H169V97.906h23l-34.594-35.25V17.25h-26.812v18L96 0zm33.969 48.781c1.226.013 2.45.16 3.656.407 4.828 1.014 10.585 5.724 10.594 12.562-.009 6.864-5.477 9.492-7.438 10.781-1.957 1.28-2.674 2.744-2.656 4.313v5.781l-7.5.031v-8.625c.006-2.555.873-4.294 3.312-5.875l4.188-2.844c2.69-1.833 2.667-5.536 1-7.187-1.478-1.426-3.973-2.269-6.625-1.75-4.822.991-5.202 4.559-5.188 7.938v1.5h-7.468c.013-6.35.702-9.222 4.031-12.844 2.777-3.06 6.415-4.227 10.094-4.188zm-34.5 10.688c4.806 0 8.718 3.88 8.718 8.687 0 4.807-3.912 8.719-8.718 8.719-4.807 0-8.688-3.912-8.688-8.719a8.677 8.677 0 0 1 8.688-8.687zm31.125 26.125h7.562v7.656h-7.562v-7.656zm-31.625 34.719-.032 40.937h2.188v-40.938h-2.156z"/></svg>