<svg xmlns="http://www.w3.org/2000/svg" xml:space="preserve" width="192" height="98.746"><circle cx="27.952" cy="15.972" r="7.639" transform="translate(-5.484) scale(1.97484)"/><path d="M172.799 41.142 161.83 0H0l.002 83.652h29.143c0-11.359 9.208-20.57 20.572-20.57 11.36 0 20.572 9.211 20.572 20.57h64.11c0-11.359 9.21-20.57 20.573-20.57 7.992 0 14.906 4.568 18.308 11.23a20.443 20.443 0 0 1 2.185 7.883c.033.484.075.968.075 1.457H192V49.373zm-38.397 0V16.456h23.518l6.577 24.686z"/><path d="M49.717 68.572c-8.332 0-15.086 6.758-15.086 15.086 0 8.332 6.754 15.088 15.086 15.088 8.33 0 15.083-6.756 15.083-15.088 0-8.328-6.755-15.086-15.083-15.086zm105.255 0c-8.332 0-15.09 6.758-15.09 15.086 0 8.332 6.758 15.088 15.09 15.088s15.09-6.756 15.09-15.088c0-8.328-6.758-15.086-15.09-15.086z"/></svg>