<svg xmlns="http://www.w3.org/2000/svg" xml:space="preserve" width="192" height="83.886" version="1.0"><path d="M67.026 83.684c-6.677 0-12.073-5.427-12.073-12.102 0-6.67 5.396-12.067 12.073-12.067 6.667 0 12.095 5.396 12.095 12.067 0 6.677-5.426 12.102-12.095 12.102m91.817.202c-6.668 0-12.071-5.397-12.071-12.067 0-6.677 5.403-12.104 12.071-12.104 6.677 0 12.103 5.427 12.103 12.104 0 6.67-5.426 12.067-12.103 12.067M36.29 83.684c-6.667 0-12.07-5.427-12.07-12.102 0-6.67 5.403-12.067 12.07-12.067 6.677 0 12.105 5.396 12.105 12.067 0 6.677-5.426 12.102-12.105 12.102"/><path d="m144.186 0 .336 47.725s1.38.87 1.623-.917c.87-6.365 2.553-23.958 3.941-35.042h28.432l12.741 29.42-2.932 22.068H192v7.118h-18.4c-.232-18.17-29.08-17.727-29.416-.405l-61.799-.336c-2.19-16.418-22.815-13.719-32.348-13.719-9.333 0-26.993-2.968-28.439 13.984H0V0h144.186zm37.903 38.892-8.15-20.594h-17.995l-.338.983-.938 19.609h27.421z"/></svg>