<svg xmlns="http://www.w3.org/2000/svg" xml:space="preserve" width="192" height="83.886" version="1.0"><path d="M124.974 83.684c6.677 0 12.073-5.427 12.073-12.102 0-6.67-5.396-12.067-12.073-12.067-6.667 0-12.095 5.396-12.095 12.067 0 6.677 5.426 12.102 12.095 12.102m-91.817.202c6.668 0 12.072-5.397 12.072-12.067 0-6.677-5.404-12.104-12.072-12.104-6.677 0-12.103 5.427-12.103 12.104 0 6.67 5.426 12.067 12.103 12.067m122.553-.202c6.667 0 12.07-5.427 12.07-12.102 0-6.67-5.403-12.067-12.07-12.067-6.677 0-12.104 5.396-12.104 12.067 0 6.677 5.425 12.102 12.104 12.102"/><path d="m47.814 0-.336 47.725s-1.38.87-1.623-.917c-.87-6.365-2.553-23.958-3.941-35.042H13.482L.742 41.186l2.931 22.068H0v7.118h18.4c.232-18.17 29.08-17.727 29.416-.405l61.799-.336c2.19-16.418 22.815-13.719 32.348-13.719 9.333 0 26.993-2.968 28.439 13.984H192V0ZM9.91 38.892l8.15-20.594h17.995l.338.983.939 19.609H9.91Z"/></svg>