<svg width="128" height="128" viewBox="0 0 128 128" xmlns="http://www.w3.org/2000/svg"><g transform="translate(16 18)" fill="none" fill-rule="evenodd"><path d="M10.603 91.272C3.59 88.938 4.31 61.432 4.31 61.432s9.978-4.235 19.63-8.217c9.09-3.752 22.643-3.998 24.184-4.014 1.685.018 15.237.264 24.328 4.016 9.65 3.982 19.63 8.218 19.63 8.218s.72 27.505-6.294 29.84c-7.007 2.332-9.727-12.653-37.592-12.68-27.865.027-30.586 15.012-37.593 12.68z" fill="#1E88E5"/><rect fill="#1E88E5" x="43.144" width="10.103" height="4.1" rx="2.05"/><path d="M12.47 16.082C.73 30.182.7 63.774.7 63.774s2.624 2.658 19.88-6.302c10.428-5.416 25.422-5.584 27.616-5.586 2.193.002 17.192.17 27.614 5.586 17.262 8.96 19.882 6.302 19.882 6.302s-.03-33.59-11.77-47.692c-8.027-7.087-17.926-12.31-35.446-12.42h-.56c-17.52.11-27.42 5.333-35.445 12.42z" fill="#2196F3"/></g></svg>